<?xml version="1.0" encoding="utf-8"?>
<!-- Generator: Adobe Illustrator 24.0.1, SVG Export Plug-In . SVG Version: 6.00 Build 0)  -->
<svg version="1.1" id="Camada_1" xmlns="http://www.w3.org/2000/svg" xmlns:xlink="http://www.w3.org/1999/xlink" x="0px" y="0px"
	 viewBox="0 0 30 30" style="enable-background:new 0 0 30 30;" xml:space="preserve">
<style type="text/css">
	.st0{fill:none;stroke:#EA1D2C;stroke-width:1.5;stroke-miterlimit:10;}
</style>
<path class="st0" d="M4.9,20.6v3.9H15c0.3,0,0.5-0.2,0.5-0.5v-2.9c0-0.3-0.2-0.5-0.5-0.5H4.9z"/>
<path class="st0" d="M4.9,13.2v3.9H20c0.3,0,0.5-0.2,0.5-0.5v-2.9c0-0.3-0.2-0.5-0.5-0.5C20,13.2,4.9,13.2,4.9,13.2z"/>
<path class="st0" d="M4.9,5.8v3.9H25c0.3,0,0.5-0.2,0.5-0.5V6.3c0-0.3-0.2-0.5-0.5-0.5H4.9z"/>
<line class="st0" x1="4.9" y1="1.2" x2="4.9" y2="29.2"/>
</svg>
