<?xml version="1.0" encoding="utf-8"?>
<!-- Generator: Adobe Illustrator 24.0.1, SVG Export Plug-In . SVG Version: 6.00 Build 0)  -->
<svg version="1.1" id="Camada_1" xmlns="http://www.w3.org/2000/svg" xmlns:xlink="http://www.w3.org/1999/xlink" x="0px" y="0px"
	 viewBox="0 0 30 30" style="enable-background:new 0 0 30 30;" xml:space="preserve">
<style type="text/css">
	.st0{fill:#EA1D2C;}
</style>
<g>
	<g>
		<path class="st0" d="M27,7.02H3c-0.83,0-1.5-0.67-1.5-1.5s0.67-1.5,1.5-1.5h24c0.83,0,1.5,0.67,1.5,1.5S27.83,7.02,27,7.02z"/>
	</g>
	<g>
		<path class="st0" d="M27,25.98H3c-0.83,0-1.5-0.67-1.5-1.5s0.67-1.5,1.5-1.5h24c0.83,0,1.5,0.67,1.5,1.5S27.83,25.98,27,25.98z"/>
	</g>
	<g>
		<path class="st0" d="M27,16.5H3c-0.83,0-1.5-0.67-1.5-1.5s0.67-1.5,1.5-1.5h24c0.83,0,1.5,0.67,1.5,1.5S27.83,16.5,27,16.5z"/>
	</g>
</g>
</svg>
